<svg width="28" height="28" viewBox="0 0 28 28" fill="none" xmlns="http://www.w3.org/2000/svg">
<g clip-path="url(#clip0_7707_165270)">
<path d="M1.53159 27.3667C1.38048 27.3667 1.23348 27.3069 1.12446 27.1967C0.980734 27.0513 0.925299 26.8403 0.979297 26.6429L2.72879 20.2543C1.63959 18.2848 1.06532 16.0567 1.06615 13.7949C1.06923 6.43949 7.05498 0.455566 14.4098 0.455566C17.9771 0.457004 21.3291 1.84658 23.8485 4.36785C26.3675 6.88933 27.7542 10.2411 27.7532 13.8056C27.7499 21.1612 21.7642 27.1456 14.4098 27.1456C14.4098 27.1456 14.4042 27.1456 14.404 27.1456C12.2558 27.1447 10.1261 26.6212 8.2298 25.6295L1.67675 27.348C1.62871 27.3605 1.57984 27.3667 1.53159 27.3667Z" fill="#E5E5E5"/>
<path d="M1.53125 26.7936L3.34296 20.1778C2.22542 18.2414 1.6376 16.045 1.63842 13.7947C1.6413 6.75509 7.37002 1.02783 14.4095 1.02783C17.8255 1.02927 21.0319 2.35889 23.4432 4.77216C25.8542 7.18543 27.1816 10.3933 27.1803 13.805C27.1772 20.8444 21.4477 26.5725 14.4095 26.5725C14.4091 26.5725 14.4097 26.5725 14.4095 26.5725H14.4039C12.2666 26.5717 10.1666 26.0356 8.30133 25.0183L1.53125 26.7936ZM8.61485 22.707L9.00269 22.9368C10.6321 23.9038 12.5002 24.4153 14.4054 24.4163H14.4095C20.2597 24.4163 25.0214 19.6554 25.0239 13.8042C25.0249 10.9686 23.922 8.30214 21.9179 6.29642C19.9136 4.2907 17.2488 3.18549 14.4134 3.18426C8.55839 3.18426 3.79691 7.94448 3.79465 13.7955C3.79383 15.8007 4.35475 17.7532 5.41747 19.4429L5.67 19.8445L4.59744 23.7603L8.61485 22.707Z" fill="white"/>
<path d="M1.97656 26.3486L3.72564 19.9614C2.64651 18.0922 2.07922 15.9715 2.07984 13.7995C2.08251 7.00355 7.61308 1.47461 14.4084 1.47461C17.7066 1.47605 20.8021 2.75968 23.1294 5.08939C25.4572 7.41911 26.7384 10.5159 26.7372 13.8091C26.7343 20.6053 21.2035 26.1348 14.409 26.1348C14.4084 26.1348 14.4092 26.1348 14.409 26.1348H14.4035C12.3403 26.134 10.3128 25.6162 8.51216 24.6348L1.97656 26.3486Z" fill="#64B161"/>
<path d="M1.5332 26.7941L3.34491 20.1783C2.22738 18.2419 1.63956 16.0455 1.64038 13.7952C1.64325 6.75558 7.37197 1.02832 14.4114 1.02832C17.8275 1.02976 21.0339 2.35938 23.4451 4.77265C25.8561 7.18592 27.1835 10.3938 27.1823 13.8055C27.1792 20.8449 21.4497 26.573 14.4114 26.573C14.411 26.573 14.4116 26.573 14.4114 26.573H14.4059C12.2685 26.5722 10.1686 26.0361 8.30328 25.0188L1.5332 26.7941ZM8.6168 22.7075L9.00464 22.9373C10.634 23.9043 12.5022 24.4157 14.4073 24.4168H14.4114C20.2617 24.4168 25.0234 19.6559 25.0258 13.8047C25.0269 10.9691 23.9239 8.30263 21.9198 6.29691C19.9155 4.29119 17.2507 3.18598 14.4153 3.18474C8.56034 3.18474 3.79886 7.94497 3.7966 13.796C3.79578 15.8011 4.35671 17.7537 5.41942 19.4434L5.67196 19.845L4.59939 23.7608L8.6168 22.7075Z" fill="white"/>
<path fill-rule="evenodd" clip-rule="evenodd" d="M11.2194 8.4578C10.9805 7.92644 10.7287 7.91577 10.5012 7.90653C10.3152 7.89852 10.1023 7.89893 9.88982 7.89893C9.67711 7.89893 9.33136 7.979 9.03899 8.29827C8.74642 8.61754 7.92188 9.38953 7.92188 10.9596C7.92188 12.5298 9.06548 14.0469 9.22501 14.26C9.38454 14.473 11.4326 17.7979 14.6759 19.077C17.3715 20.1401 17.9199 19.9286 18.505 19.8755C19.0902 19.8223 20.3929 19.1035 20.6588 18.3584C20.9249 17.6133 20.9249 16.9747 20.845 16.8411C20.7652 16.7082 20.5524 16.6284 20.2334 16.4688C19.9143 16.3093 18.3455 15.5371 18.0529 15.4308C17.7604 15.3242 17.5477 15.2712 17.335 15.5907C17.122 15.9098 16.511 16.6284 16.3248 16.8411C16.1386 17.0544 15.9524 17.0811 15.6333 16.9214C15.3142 16.7614 14.2864 16.4247 13.0673 15.3375C12.1187 14.4918 11.4781 13.4472 11.2919 13.1277C11.1059 12.8087 11.2888 12.651 11.4321 12.4767C11.6902 12.1627 12.1232 11.5983 12.2296 11.3856C12.3359 11.1725 12.2828 10.9863 12.2031 10.8265C12.1232 10.667 11.503 9.08894 11.2194 8.4578Z" fill="white"/>
</g>
<defs>
<clipPath id="clip0_7707_165270">
<rect width="26.9111" height="26.9111" fill="white" transform="translate(0.90625 0.455566)"/>
</clipPath>
</defs>
</svg>
